<?xml version="1.0" encoding="utf-8"?>
<!-- Generator: Adobe Illustrator 24.3.0, SVG Export Plug-In . SVG Version: 6.00 Build 0)  -->
<svg version="1.1" xmlns="http://www.w3.org/2000/svg" xmlns:xlink="http://www.w3.org/1999/xlink" x="0px" y="0px"
	 viewBox="0 0 595.28 841.89" style="enable-background:new 0 0 595.28 841.89;" xml:space="preserve">
<style type="text/css">
	.st0{fill:#FCEA10;}
	.st1{fill:#C71113;}
	.st2{fill:#E52420;}
	.st3{fill:#CD99C5;}
	.st4{fill:#015D2C;}
</style>
<g id="Layer_2">
	<g id="Layer_5">
		<g>
			<g>
				<path class="st0" d="M132.7,386.32c12.34-1.81,24.75-3.56,37.24-3.67c6.09-0.05,12.22,0.28,18.23,1.28
					c5.95,0.99,11.69,2.71,17.4,4.64c10.97,3.71,22.53,8.11,34.28,5.84c5.55-1.07,10.3-4.06,15.37-6.38
					c2.29-1.04,4.74-1.86,7.25-2.07c2.56-0.22,5.15-0.04,7.69,0.29c5.57,0.74,11.14,2.23,16.8,1.97c2.87-0.13,5.66-0.74,8.26-1.99
					c1.12-0.53,1.88-1.12,2.98-1.42c0.64-0.18,0.57-0.06,1.11-0.17c-0.46,0.09-0.04-0.14,0.02,0.01c-0.12-0.3-0.81-0.49-0.83-1.01
					c0.41-0.72,0.83-1.44,1.24-2.16c-5.81,3.18-10.11,8.85-11.59,15.31c-0.52,2.26,1.7,3.71,3.67,2.82
					c6.36-2.88,11.18-8.28,13.68-14.75c0.86-2.21-1.92-3.69-3.67-2.82c-11.89,5.88-24.26,12.1-33.2,22.18
					c-4.84,5.46-7.82,12.06-12.06,17.93c-4.08,5.65-9.53,10.25-15.01,14.5c-5.28,4.09-10.89,8.52-17.49,10.15
					c-6.19,1.53-12.27-0.44-17.4-3.95c-11.6-7.94-16.76-22.02-26.47-31.81c-5.84-5.88-12.89-10.36-19.81-14.82
					c-7.58-4.89-15.16-9.78-22.74-14.67c-1.04-0.67-2.51-0.31-3.23,0.64c-0.8,1.08-0.6,2.27,0.2,3.28
					c3.12,3.98,6.26,7.97,9.84,11.54c3.48,3.48,7.39,6.42,11.7,8.79c3.93,2.17,8.05,4,11.88,6.37c3.67,2.27,6.64,5.06,8.95,8.73
					c2.74,4.35,5.06,8.93,9.41,11.92c2.36,1.62,5.04-1.98,3.03-3.93c-7.25-7.02-14.5-14.04-21.75-21.06
					c-3.68-3.57-7.37-7.13-11.05-10.7c-3.24-3.13-6.38-6.46-9.91-9.26c-3.8-3.02-8.26-5.48-13.27-5.12c-1.35,0.1-2.5,1.08-2.5,2.5
					c0,1.28,1.15,2.6,2.5,2.5c3.75-0.27,7.03,1.51,9.9,3.78c3.48,2.76,6.57,6.05,9.75,9.13c6.95,6.73,13.9,13.46,20.86,20.19
					c3.98,3.85,7.96,7.71,11.94,11.56c1.01-1.31,2.02-2.62,3.03-3.93c-3.43-2.35-5.29-6.37-7.42-9.8c-2.42-3.91-5.4-7.1-9.2-9.7
					c-3.64-2.51-7.67-4.37-11.58-6.41c-4.18-2.18-8.05-4.66-11.49-7.9c-4.1-3.87-7.6-8.32-11.08-12.74
					c-1.01,1.31-2.02,2.62-3.03,3.93c6.89,4.45,13.78,8.89,20.67,13.34c6.26,4.04,12.7,7.96,18.29,12.93
					c10.78,9.6,16.01,23.94,27.33,32.99c5.25,4.19,11.56,7.31,18.42,7.23c7.15-0.08,13.6-3.61,19.28-7.65
					c5.87-4.19,11.7-8.69,16.69-13.91c2.56-2.67,4.86-5.59,6.85-8.71c2.03-3.17,3.79-6.51,5.89-9.64
					c8.44-12.57,22.64-19.56,35.81-26.08c-1.22-0.94-2.45-1.88-3.67-2.82c-2.05,5.29-6.26,9.44-11.39,11.76
					c1.22,0.94,2.45,1.88,3.67,2.82c1.2-5.27,4.54-9.72,9.29-12.33c0.75-0.41,1.27-1.31,1.24-2.16c-0.1-2.76-2.37-4.23-4.99-3.95
					c-2.37,0.25-4.1,1.52-6.23,2.41c-4.55,1.9-9.76,1.11-14.47,0.34c-5.29-0.87-10.71-2.03-16.1-1.41
					c-5.92,0.68-10.89,3.72-16.17,6.22c-5.23,2.46-10.76,3.18-16.48,2.57c-5.91-0.62-11.66-2.53-17.26-4.41
					c-5.85-1.97-11.67-4.08-17.71-5.42c-6.31-1.4-12.78-2.1-19.23-2.29c-14.59-0.43-29.11,1.69-43.5,3.79
					c-1.34,0.2-2.07,1.89-1.75,3.08C130.02,386.01,131.36,386.52,132.7,386.32L132.7,386.32z"/>
			</g>
		</g>
		<g>
			<g>
				<path class="st0" d="M289.81,390.39c-8.17,11.78-17.66,22.6-28.24,32.27c-5.21,4.76-10.66,9.35-16.47,13.36
					c-5.74,3.95-12,7.26-18.94,8.4c-6.34,1.04-13.16-0.06-18.37-3.97c-4.56-3.42-7.61-8.45-10.59-13.19
					c-3.2-5.08-6.47-10.19-11.02-14.19c-4.47-3.93-9.65-6.88-14.87-9.67c-5.65-3.01-11.56-5.85-16.55-9.92
					c-1.26-1.03-2.47-2.13-3.59-3.32c-0.56-0.6-1.11-1.21-1.62-1.85c-0.18-0.22-0.35-0.43-0.51-0.67c-0.16-0.23-0.3-0.47-0.43-0.72
					c0.05,0.11,0.04,0.22-0.02,0.34c0.41-0.46,1.3-0.78,1.85-1.02c0.84-0.36,1.72-0.64,2.61-0.85c1.86-0.44,3.76-0.48,5.66-0.25
					c1.34,0.16,2.5-1.26,2.5-2.5c0-1.48-1.15-2.34-2.5-2.5c-3.83-0.45-7.71,0.28-11.18,1.96c-1.77,0.86-3.49,2.13-3.81,4.2
					c-0.33,2.14,0.91,3.82,2.18,5.4c3.92,4.9,9.24,8.49,14.64,11.56c5.42,3.08,11.09,5.72,16.35,9.08
					c5.24,3.34,9.46,7.49,12.93,12.65c3.58,5.33,6.63,11.08,11.03,15.83c4.87,5.27,11.27,8.3,18.42,8.85
					c15.61,1.2,29.03-9.07,40.28-18.59c11.72-9.91,22.2-21.21,31.3-33.56c1.12-1.52,2.22-3.06,3.29-4.61
					c0.77-1.11,0.2-2.78-0.9-3.42C291.99,388.77,290.58,389.28,289.81,390.39L289.81,390.39z"/>
			</g>
		</g>
		<g>
			<path class="st0" d="M191.61,399.13c4.23,11.01,13.81,19.83,25.14,23.14c6.57,1.92,14.29,1.83,19.57-2.53
				c1.81-1.49,3.28-3.51,3.64-5.83c0.58-3.67-1.78-7.31-4.91-9.3c-3.13-1.99-6.91-2.65-10.59-3.13c-10.09-1.33-20.3-1.66-30.45-0.98
				"/>
			<g>
				<path class="st0" d="M189.2,399.8c5.44,13.94,18.89,25.29,34.18,26.13c7.34,0.4,17.14-2.81,18.92-10.97
					c0.9-4.12-0.97-8.37-4.09-11.07c-3.31-2.87-7.57-4.02-11.81-4.64c-10.71-1.57-21.59-1.95-32.39-1.25
					c-1.35,0.09-2.5,1.09-2.5,2.5c0,1.29,1.15,2.59,2.5,2.5c8.52-0.55,17.07-0.42,25.56,0.42c5.86,0.58,16.08,0.94,17.83,8.16
					c0.72,2.99-1.5,5.6-3.88,7.1c-2.63,1.66-5.72,2.29-8.8,2.28c-6.36-0.01-12.57-2.56-17.74-6.16c-5.76-4-10.42-9.8-12.97-16.34
					c-0.49-1.26-1.68-2.13-3.08-1.75C189.74,397.05,188.7,398.53,189.2,399.8L189.2,399.8z"/>
			</g>
		</g>
		<g>
			<path class="st0" d="M151.06,388.24c16.93,12.18,33.86,24.35,50.79,36.53c2.96,2.13,6.18,4.68,6.58,8.31
				c-2.68-2.44-5.37-4.88-8.05-7.31c-1.78,1.68-2.42,4.47-1.54,6.76c0.65-3.24-0.08-6.74-1.97-9.45c-2.58,3.34-0.95,8.53,2.32,11.18
				c3.28,2.66,7.64,3.43,11.81,4.1c11.47,1.83,24.14,3.27,33.88-3.04c6.81-4.42,10.93-11.88,16.65-17.65
				c11.15-11.25,28.75-16.49,35.46-30.84c-9.54-2.62-19.61-3.31-29.43-2.02c-6.67,0.87-13.19,2.64-19.78,4
				c-19.05,3.93-38.62,4.44-58.07,4.93c-3.09,0.08-6.33,0.13-9.09-1.27c-2.01-1.01-3.58-2.7-5.45-3.96
				c-5.45-3.66-12.58-3.2-19.11-2.6"/>
			<g>
				<path class="st0" d="M149.8,390.4c15.99,11.5,31.98,23,47.97,34.5c3.12,2.24,7.68,4.65,8.25,8.84c1.39-0.81,2.79-1.62,4.18-2.43
					c-2.68-2.44-5.37-4.88-8.05-7.31c-1-0.91-2.55-1-3.54,0c-2.37,2.39-3.3,5.99-2.19,9.2c0.74,2.12,4.34,2.62,4.82,0
					c0.73-3.96,0.05-8.01-2.22-11.38c-1.11-1.65-3.19-1.55-4.32,0c-2.76,3.79-1.66,9.01,1.07,12.48c3.09,3.95,8.21,5.38,12.94,6.2
					c9.61,1.66,19.96,3.19,29.52,0.49c4.69-1.33,8.89-3.77,12.44-7.1c3.46-3.25,6.23-7.11,9.27-10.74c2.74-3.27,5.78-6.21,9.2-8.76
					c3.31-2.47,6.8-4.69,10.25-6.96c7.73-5.09,15.66-10.74,19.75-19.34c0.68-1.43,0.17-3.22-1.49-3.67
					c-9.31-2.52-19.1-3.35-28.69-2.28c-9.8,1.1-19.29,4-29.01,5.58c-9.69,1.58-19.51,2.35-29.31,2.83
					c-4.94,0.24-9.89,0.4-14.84,0.53c-2.45,0.07-4.9,0.15-7.35,0.18c-2.01,0.03-4.09,0.01-6-0.71c-2.16-0.81-3.81-2.65-5.66-3.96
					c-1.94-1.38-4.23-2.32-6.55-2.85c-4.66-1.08-9.46-0.76-14.17-0.33c-1.34,0.12-2.5,1.06-2.5,2.5c0,1.26,1.15,2.62,2.5,2.5
					c3.97-0.36,8.12-0.78,12.07-0.02c1.87,0.36,3.65,0.95,5.28,1.95c1.85,1.14,3.36,2.74,5.22,3.87c3.93,2.38,8.63,2.08,13.03,1.97
					c4.95-0.13,9.9-0.26,14.84-0.46c9.86-0.4,19.71-1.07,29.49-2.4c4.81-0.65,9.59-1.48,14.33-2.51c4.78-1.03,9.52-2.22,14.34-3.06
					c10.53-1.83,21.34-1.31,31.66,1.48c-0.5-1.22-1-2.45-1.49-3.67c-3.21,6.74-8.98,11.46-15.02,15.58
					c-6.47,4.41-13.34,8.36-19.05,13.78c-6.26,5.93-10.43,14.28-18,18.76c-7.72,4.57-17.22,4.12-25.8,3.03
					c-2.45-0.31-4.89-0.68-7.31-1.12c-2.38-0.43-4.84-0.93-6.99-2.07c-3.2-1.69-6.11-5.78-3.62-9.2c-1.44,0-2.88,0-4.32,0
					c1.49,2.22,2.21,4.86,1.72,7.53c1.61,0,3.21,0,4.82,0c-0.54-1.57-0.29-3.13,0.9-4.33c-1.18,0-2.36,0-3.54,0
					c2.68,2.44,5.37,4.88,8.05,7.31c1.99,1.8,4.51-0.04,4.18-2.43c-0.57-4.15-3.96-7.03-7.13-9.37c-4.06-2.99-8.19-5.89-12.28-8.84
					c-8.33-5.99-16.66-11.98-24.99-17.98c-4.7-3.38-9.41-6.77-14.11-10.15c-1.1-0.79-2.78-0.19-3.42,0.9
					C148.17,388.23,148.7,389.6,149.8,390.4L149.8,390.4z"/>
			</g>
		</g>
		<g>
			<path class="st0" d="M174.68,381.81c7.43-0.7,14.98-0.21,22.26,1.44c1.25,0.28,2.54,0.63,3.52,1.46
				c0.95,0.81,1.49,1.98,2.01,3.12c1.62,3.57,3.11,8.17,0.45,11.06c-1.3,1.42-3.29,1.97-5.19,2.3c-7.14,1.26-14.66,0.32-21.27-2.65
				c-1.65-0.74-3.28-1.63-4.47-2.99c-2.69-3.09-2.45-7.67-2.06-11.75"/>
			<g>
				<path class="st0" d="M174.68,384.31c5.78-0.53,11.65-0.41,17.39,0.53c1.41,0.23,2.82,0.5,4.21,0.82
					c1.06,0.24,2.23,0.44,2.94,1.34c1.21,1.53,1.95,3.93,2.4,5.8c0.41,1.72,0.52,3.8-1.13,4.89c-1.83,1.21-4.59,1.34-6.72,1.47
					c-5.32,0.33-10.72-0.51-15.64-2.6c-2.41-1.02-4.69-2.3-5.47-4.95c-0.75-2.51-0.46-5.24-0.22-7.81c0.13-1.35-1.24-2.5-2.5-2.5
					c-1.46,0-2.37,1.15-2.5,2.5c-0.27,2.91-0.45,5.91,0.3,8.78c0.81,3.13,2.81,5.58,5.59,7.18c5.63,3.26,12.66,4.63,19.11,4.46
					c3.17-0.08,6.63-0.38,9.55-1.69c2.92-1.31,4.63-3.97,4.86-7.12c0.22-2.94-0.91-5.87-2.07-8.51c-0.59-1.33-1.23-2.67-2.28-3.71
					c-1.13-1.13-2.62-1.77-4.15-2.17c-7.62-2.01-15.86-2.42-23.68-1.71c-1.34,0.12-2.5,1.06-2.5,2.5
					C172.18,383.07,173.33,384.43,174.68,384.31L174.68,384.31z"/>
			</g>
		</g>
		<g>
			<path class="st0" d="M153.51,383.72c-1.3,4.04,0.51,8.86,4.15,11.04c3.16,1.89,7.72,1.54,10.02-1.32
				c2.3-2.87,1.14-8.01-2.39-9.02"/>
			<g>
				<path class="st0" d="M151.1,383.06c-1.87,6.05,1.66,13.17,7.82,14.94c2.82,0.81,6.18,0.52,8.65-1.15
					c2.46-1.66,3.97-4.4,3.79-7.41c-0.2-3.34-2.11-6.43-5.41-7.44c-1.25-0.38-2.78,0.46-3.08,1.75c-0.31,1.35,0.41,2.66,1.75,3.08
					c-0.03-0.01,0.31,0.1,0.31,0.1c-0.03,0.08-0.49-0.26-0.16-0.06c0.05,0.03,0.54,0.33,0.54,0.32c-0.06,0.05-0.41-0.36-0.13-0.1
					c0.08,0.07,0.16,0.14,0.23,0.21c0.07,0.07,0.14,0.15,0.22,0.23c0.37,0.37-0.28-0.45,0-0.01c0.11,0.18,0.23,0.36,0.33,0.54
					c0.05,0.09,0.1,0.19,0.14,0.29c0.18,0.34-0.11-0.13-0.06-0.15c0.01,0,0.18,0.56,0.2,0.62c0.03,0.11,0.05,0.21,0.08,0.32
					c0.02,0.1,0.07,0.57,0.04,0.15c-0.04-0.44,0.01,0.32,0.02,0.4c0.01,0.22-0.01,0.44-0.02,0.66c-0.03,0.62,0.12-0.45-0.03,0.15
					c-0.06,0.24-0.13,0.47-0.2,0.71c-0.13,0.46,0.04-0.16,0.07-0.14c0.01,0-0.12,0.26-0.14,0.29c-0.03,0.06-0.29,0.57-0.34,0.56
					c-0.02,0,0.36-0.41,0.07-0.1c-0.09,0.09-0.17,0.19-0.25,0.28c-0.09,0.09-0.18,0.18-0.27,0.26c-0.12,0.11-0.56,0.37-0.07,0.08
					c-0.21,0.13-0.41,0.28-0.63,0.4c-0.16,0.09-0.82,0.35-0.24,0.15c-0.51,0.18-1.02,0.28-1.54,0.43c-0.34,0.1,0.46-0.03,0.1-0.01
					c-0.09,0.01-0.19,0.02-0.28,0.02c-0.25,0.02-0.51,0.02-0.76,0.02c-0.21,0-0.57,0.04-0.76-0.05c0.38,0.17,0.31,0.05,0.09,0.01
					c-0.19-0.04-0.38-0.07-0.56-0.12c-0.25-0.06-0.49-0.13-0.74-0.21c-0.12-0.04-0.24-0.09-0.36-0.13c0.08,0.03,0.48,0.23,0.07,0.03
					c-0.23-0.12-0.45-0.23-0.67-0.36c-0.11-0.07-0.23-0.14-0.34-0.21c-0.06-0.04-0.51-0.36-0.23-0.15c0.26,0.19-0.07-0.06-0.13-0.12
					c-0.1-0.09-0.2-0.17-0.29-0.26c-0.19-0.18-0.38-0.37-0.55-0.57c-0.09-0.1-0.17-0.2-0.26-0.3c-0.24-0.27,0.22,0.34,0.03,0.04
					c-0.16-0.25-0.34-0.49-0.49-0.74c-0.17-0.29-0.32-0.58-0.46-0.88c-0.05-0.11-0.16-0.44,0.02,0.05
					c-0.06-0.16-0.12-0.31-0.17-0.47c-0.1-0.28-0.18-0.57-0.25-0.86c-0.04-0.18-0.2-1.15-0.13-0.5c-0.07-0.59-0.09-1.18-0.05-1.78
					c0.01-0.13,0.03-0.26,0.03-0.39c-0.03,0.62,0,0.02,0.03-0.12c0.06-0.32,0.15-0.64,0.25-0.96c0.39-1.25-0.46-2.78-1.75-3.08
					C152.82,381,151.51,381.72,151.1,383.06L151.1,383.06z"/>
			</g>
		</g>
		<g>
			<path class="st0" d="M214.08,388.82c-4-1.6-9.42-2.26-11.84,1.31c-1.89,2.79-0.25,7.22,2.99,8.15c3.24,0.93,6.95-1.9,6.97-5.27"
				/>
			<g>
				<path class="st0" d="M214.74,386.4c-2.4-0.95-5.13-1.57-7.72-1.34c-2.9,0.27-5.86,1.55-7.24,4.29c-1.3,2.57-1.08,5.83,0.59,8.19
					c1.86,2.64,4.93,3.97,8.12,3.14c3.45-0.91,6.12-4.09,6.2-7.69c0.03-1.31-1.17-2.56-2.5-2.5c-1.38,0.06-2.47,1.1-2.5,2.5
					c0,0.13-0.03,0.27-0.02,0.39c0.03,0.33,0.15-0.62,0.01-0.13c-0.06,0.21-0.16,0.46-0.19,0.67c-0.05,0.32,0.29-0.55,0.04-0.1
					c-0.05,0.09-0.09,0.18-0.14,0.28c-0.06,0.11-0.13,0.22-0.2,0.33c-0.04,0.07-0.09,0.13-0.13,0.19c-0.12,0.17-0.12,0.17,0.01,0
					c0.03-0.04,0.07-0.09,0.1-0.13c-0.07,0.08-0.14,0.16-0.21,0.24c-0.07,0.08-0.14,0.15-0.22,0.22c-0.09,0.09-0.19,0.18-0.29,0.27
					c-0.36,0.34-0.01-0.1,0.07-0.05c-0.03-0.02-0.54,0.35-0.6,0.38c-0.11,0.06-0.23,0.12-0.35,0.18c-0.42,0.22,0.51-0.15,0.02-0.01
					c-0.22,0.06-0.45,0.13-0.67,0.19c-0.33,0.1-0.27-0.11,0.13,0c-0.06-0.02-0.25,0.02-0.31,0.03c-0.2,0.01-0.6-0.09-0.77-0.02
					c0.07-0.03,0.61,0.13,0.2,0.02c-0.15-0.04-0.3-0.07-0.44-0.12c-0.06-0.02-0.2-0.09-0.27-0.1c0.48,0.04,0.38,0.17,0.08,0.01
					c-0.17-0.09-0.32-0.2-0.48-0.3c-0.41-0.26,0.32,0.33,0.12,0.09c-0.07-0.09-0.18-0.16-0.26-0.24c-0.07-0.07-0.13-0.13-0.2-0.2
					c-0.3-0.33-0.05-0.17,0.03,0.07c-0.07-0.2-0.28-0.41-0.39-0.6c-0.06-0.11-0.36-0.76-0.19-0.35c0.17,0.4-0.08-0.25-0.12-0.38
					c-0.03-0.11-0.06-0.23-0.09-0.35c-0.02-0.1-0.09-0.62-0.04-0.16c0.05,0.46-0.01-0.24-0.01-0.38c0-0.23,0.05-0.48,0.03-0.71
					c0,0.05-0.13,0.64-0.02,0.25c0.03-0.11,0.05-0.23,0.08-0.34c0.03-0.11,0.07-0.22,0.11-0.34c0.13-0.43-0.28,0.5-0.03,0.08
					c0.11-0.18,0.25-0.37,0.33-0.56c0.14-0.29-0.41,0.45-0.06,0.08c0.07-0.07,0.13-0.15,0.2-0.22c0.15-0.16,0.42-0.32,0.54-0.49
					c-0.03,0.05-0.5,0.34-0.16,0.13c0.12-0.07,0.24-0.16,0.37-0.23c0.1-0.06,0.21-0.11,0.32-0.17c0.27-0.15,0.32,0.01-0.13,0.05
					c0.18-0.01,0.38-0.14,0.55-0.19c0.24-0.07,0.48-0.13,0.72-0.18c0.06-0.01,0.23-0.02,0.3-0.05c-0.41,0.05-0.48,0.06-0.21,0.03
					c0.05-0.01,0.1-0.01,0.15-0.02c0.57-0.05,1.15-0.05,1.73-0.02c0.13,0.01,0.27,0.02,0.4,0.03c0.09,0.01,0.66,0.1,0.23,0.02
					c-0.44-0.09,0.09,0.02,0.15,0.03c0.16,0.03,0.32,0.06,0.48,0.09c1.16,0.23,2.3,0.58,3.4,1.01c1.22,0.48,2.8-0.53,3.08-1.75
					C216.82,388.04,216.05,386.92,214.74,386.4L214.74,386.4z"/>
			</g>
		</g>
		<g>
			<path class="st0" d="M210.1,438.37c-0.8,1.84,0,4.12,1.55,5.41s3.66,1.72,5.67,1.63c6.41-0.28,12.11-6.01,12.35-12.42"/>
			<g>
				<path class="st0" d="M207.69,437.71c-1.33,3.39,0.68,7.29,3.74,8.94c3.01,1.62,6.84,1.63,10.02,0.49
					c6.01-2.15,10.4-7.72,10.72-14.14c0.07-1.35-1.2-2.5-2.5-2.5c-1.41,0-2.43,1.15-2.5,2.5c-0.01,0.27-0.03,0.55-0.06,0.82
					c0.05-0.38-0.07,0.34-0.08,0.41c-0.12,0.58-0.28,1.15-0.48,1.7c-0.23,0.64-0.83,1.73-1.4,2.53c-0.24,0.33-0.49,0.63-0.92,1.08
					c-0.38,0.4-0.78,0.77-1.2,1.12c-0.25,0.21-0.58,0.44-1.05,0.72c-0.46,0.29-0.95,0.55-1.44,0.77c0.29-0.13-0.42,0.16-0.41,0.16
					c-0.26,0.09-0.52,0.18-0.78,0.25c-0.26,0.07-0.53,0.14-0.79,0.2c0.01,0-0.78,0.14-0.41,0.09c-1.15,0.15-2.26,0.12-3.32-0.19
					c-0.88-0.25-1.72-0.81-2.09-1.39c-0.54-0.84-0.58-1.31-0.21-2.24c0.49-1.26-0.54-2.74-1.75-3.08
					C209.35,435.57,208.19,436.44,207.69,437.71L207.69,437.71z"/>
			</g>
		</g>
		<g>
			<path class="st0" d="M231.96,453.38c3.82,16.77,7.67,33.98,5.39,51.03c-1.07,8.05-3.5,15.88-4.64,23.93
				c-1.71,12.02-0.53,24.3-2.13,36.34c-2,15.01-8.26,30.35-3.69,44.78c1.38,4.36,3.43,9.85,0,12.87c-2.1,1.84-5.49,1.56-7.78-0.04
				c-2.29-1.6-3.66-4.22-4.58-6.86c-4.32-12.36-0.47-25.86,0.84-38.88c0.73-7.29,0.65-14.63,0.9-21.95
				c1.22-35.45,10.24-71.44,1.94-105.94c-6.09,22.18-6.74,45.43-7.36,68.42c-0.21,7.75-0.14,16.31,4.98,22.13"/>
			<g>
				<path class="st0" d="M229.55,454.04c2.65,11.66,5.34,23.4,5.88,35.38c0.27,5.89,0.01,11.81-1,17.63
					c-1.01,5.81-2.54,11.52-3.59,17.32c-2.15,11.9-1.28,23.97-2.29,35.96c-0.96,11.38-4.73,22.3-5.62,33.69
					c-0.43,5.53-0.03,11.13,1.66,16.44c0.81,2.55,3.62,8.98-0.11,10.45c-1.6,0.63-3.51-0.17-4.67-1.28
					c-1.72-1.64-2.62-3.94-3.29-6.17c-1.6-5.29-1.69-10.84-1.26-16.32c0.45-5.68,1.46-11.31,2.18-16.96
					c0.76-5.91,1-11.83,1.13-17.78c0.26-11.9,1.09-23.71,2.28-35.55c2.35-23.4,5.26-47.07,1.44-70.48
					c-0.46-2.81-1.02-5.61-1.68-8.38c-0.58-2.43-4.19-2.33-4.82,0c-3.44,12.6-5.18,25.6-6.14,38.6c-0.47,6.34-0.75,12.69-0.97,19.05
					c-0.2,6.02-0.59,12.11-0.34,18.13c0.26,6.22,1.57,12.37,5.72,17.2c0.88,1.03,2.63,0.9,3.54,0c1.02-1.02,0.88-2.51,0-3.54
					c-3.13-3.65-4-8.61-4.23-13.27c-0.28-5.76,0.09-11.58,0.28-17.34c0.4-12.38,1.01-24.8,2.78-37.06c1-6.89,2.36-13.73,4.19-20.45
					c-1.61,0-3.21,0-4.82,0c5.65,23.72,3.05,48.3,0.6,72.27c-1.24,12.12-2.43,24.24-2.72,36.42c-0.15,6.18-0.18,12.37-0.8,18.53
					c-0.59,5.9-1.68,11.74-2.32,17.63c-0.63,5.77-0.79,11.61,0.34,17.34c1,5.06,3.13,11.3,8.19,13.62
					c4.72,2.16,10.83,0.33,11.96-5.2c1.03-5.02-1.66-9.81-2.63-14.62c-2.25-11.21,1.44-22.72,3.54-33.65
					c1.17-6.07,1.79-12.18,2-18.35c0.21-6.15,0.16-12.31,0.6-18.45c0.87-12.26,5.17-23.95,5.86-36.24
					c0.7-12.39-1.41-24.77-4.01-36.84c-0.65-3.02-1.33-6.04-2.02-9.06C233.65,449.58,228.83,450.91,229.55,454.04L229.55,454.04z"/>
			</g>
		</g>
		<g>
			<path class="st0" d="M231.55,440.33c-0.15,18.39-1.89,36.77-5.19,54.87c-0.24,1.32-0.75,2.91-2.07,3.13
				c-1.76,0.29-2.64-2.05-2.82-3.83c-1.49-14.34-2.55-28.73-3.18-43.14c-0.08-1.75-0.13-3.58,0.59-5.17
				c1.04-2.29,3.75-3.68,6.22-3.19c2.46,0.49,4.44,2.81,4.52,5.32"/>
			<g>
				<path class="st0" d="M229.05,440.33c-0.15,16.62-1.55,33.24-4.3,49.63c-0.31,1.84-0.44,3.9-1.07,5.66
					c-0.22,0.62-0.15,0.27,0.57,0.31c0.48,0.03,0.24,0.27,0.16-0.02c-0.02-0.09-0.16-0.35-0.22-0.53c-0.55-1.54-0.5-3.57-0.68-5.33
					c-0.21-2.14-0.41-4.29-0.6-6.44c-0.75-8.42-1.34-16.85-1.8-25.29c-0.13-2.39-0.25-4.78-0.35-7.17
					c-0.06-1.61-0.25-3.64,1.05-4.83c1.91-1.74,5.1-0.64,5.29,2.02c0.09,1.35,1.08,2.5,2.5,2.5c1.28,0,2.59-1.15,2.5-2.5
					c-0.29-4.2-3.55-7.78-7.87-7.91c-4.59-0.14-7.95,3.53-8.42,7.87c-0.25,2.32,0.03,4.73,0.15,7.05c0.12,2.48,0.26,4.97,0.41,7.45
					c0.3,5.05,0.65,10.09,1.06,15.13c0.4,4.96,0.85,9.91,1.35,14.86c0.21,2.03,0.31,4.18,1.5,5.93c1.24,1.82,3.48,2.73,5.55,1.71
					c1.76-0.86,2.57-2.72,2.93-4.55c0.47-2.39,0.85-4.81,1.23-7.22c0.79-4.96,1.46-9.94,2.03-14.94
					c1.25-11.08,1.92-22.22,2.02-33.37C234.07,437.11,229.07,437.11,229.05,440.33L229.05,440.33z"/>
			</g>
		</g>
		<g>
			<path class="st0" d="M214.94,620.31c-15.35,8.65-32.01,14.94-49.25,18.6c4.17,2.86,9.65,2.62,14.69,2.27
				c28.23-1.97,56.47-3.94,84.7-5.91c-12.26-3.55-25.87-8.95-30.34-20.9c-2.33-6.22-1.66-13.12-0.76-19.71
				c0.25-1.87,0.52-3.83-0.14-5.6c-1.93-5.27-9.44-4.86-14.88-3.46"/>
			<g>
				<path class="st0" d="M213.68,618.15c-15.2,8.54-31.6,14.71-48.65,18.35c-2.23,0.48-2.28,3.46-0.6,4.57
					c4.86,3.22,10.88,2.96,16.45,2.58c6.81-0.47,13.62-0.95,20.43-1.43c13.62-0.95,27.24-1.9,40.86-2.85
					c7.64-0.53,15.28-1.07,22.92-1.6c2.74-0.19,3.48-4.09,0.66-4.91c-9.21-2.68-19.83-6.19-25.83-14.21
					c-3.56-4.75-4.48-10.45-4.22-16.27c0.15-3.32,0.82-6.59,1.02-9.9c0.17-2.83-0.63-5.77-2.84-7.67
					c-4.19-3.62-10.63-2.87-15.58-1.62c-3.12,0.79-1.8,5.61,1.33,4.82c2.19-0.55,4.28-0.89,6.55-0.81c0.98,0.03,1.63,0.11,2.6,0.4
					c0.71,0.21,1.44,0.57,1.96,1.1c0.56,0.56,0.88,1.25,0.98,2.25c0.17,1.59-0.19,3.26-0.4,4.83c-0.42,3.24-0.75,6.5-0.66,9.77
					c0.16,6.04,1.89,11.74,5.63,16.53c3.07,3.93,7.22,6.94,11.6,9.26c5.22,2.76,10.86,4.69,16.52,6.33
					c0.22-1.64,0.44-3.27,0.66-4.91c-26.74,1.87-53.48,3.73-80.22,5.6c-5.76,0.4-12.78,1.78-17.91-1.61c-0.2,1.52-0.4,3.05-0.6,4.57
					c17.44-3.72,34.29-10.11,49.84-18.85C219.01,620.89,216.49,616.57,213.68,618.15L213.68,618.15z"/>
			</g>
		</g>
	</g>
	<g>
		<g>
			<path class="st1" d="M250.1,333.81c-5.19,1.02-9.56,4.38-12.59,8.63c-3.25,4.55-4.65,10.18-5.16,15.67
				c-0.27,2.91-0.34,5.92,0.33,8.79c0.64,2.71,2.1,5.09,3.88,7.19c1.64,1.93,3.61,3.57,5.58,5.14c2.2,1.76,4.47,3.44,6.87,4.92
				c4.77,2.94,10.21,5.2,15.89,5.26c5.7,0.07,11.23-2.11,14.33-7.07c3.13-5.01,4.13-11.23,4.79-17c0.61-5.36,1.4-11.13-0.03-16.43
				c-1.67-6.21-6.88-10.25-12.38-13.04c-5.87-2.98-12.35-4.56-18.93-4.64c-3.22-0.04-3.22,4.96,0,5c4.87,0.06,9.73,1.03,14.23,2.93
				c3.96,1.68,8.57,4.15,10.91,7.91c2.46,3.94,2.06,8.9,1.68,13.33c-0.43,5.02-0.93,10.09-2.54,14.9c-0.71,2.11-1.61,4.35-3.16,5.99
				c-1.55,1.64-3.63,2.46-5.82,2.88c-4.44,0.85-9.09-0.46-13.05-2.44c-4.25-2.13-8.17-4.98-11.74-8.11
				c-1.61-1.41-3.19-2.94-4.32-4.78c-1.2-1.95-1.66-4.07-1.71-6.35c-0.2-9.61,3.51-21.76,14.26-23.87c1.33-0.26,2.08-1.84,1.75-3.08
				C252.79,334.18,251.43,333.55,250.1,333.81L250.1,333.81z"/>
		</g>
	</g>
</g>
<g id="Layer_3">
	<g>
		<g>
			<path d="M-345.33,241.5c3.22,0,3.22-5,0-5C-348.55,236.5-348.56,241.5-345.33,241.5L-345.33,241.5z"/>
		</g>
	</g>
	<g>
		<g>
			<path class="st2" d="M260.52,352.4c-3.91,2.04-4.84,6.95-4.99,10.98c-0.09,2.52,0.98,4.66,3.35,5.67
				c2.38,1.01,5.02,1.47,7.58,1.73c2.54,0.26,5.38,0.37,7.76-0.7c2.11-0.94,3.58-2.79,4.49-4.87c1.82-4.18,2.13-9.2,0.76-13.55
				c-1.36-4.35-4.39-8.07-8.6-9.93c-4.04-1.78-8.62-1.84-12.52,0.36c-3.57,2.01-5.88,5.51-7.4,9.22c-0.73,1.78-1.25,3.63-1.61,5.51
				c-0.44,2.31-1.02,4.95,0.24,7.1c1.36,2.33,4.28,2.89,6.75,3.06c2.53,0.17,5.3-0.25,7.42-1.73c3.91-2.73,4.83-9.28,0.27-11.91
				c-2.79-1.61-5.31,2.71-2.52,4.32c0.54,0.31,0.73,0.8,0.59,1.77c-0.03,0.17-0.2,0.69-0.42,1.01c-0.29,0.43-0.81,0.81-1.39,1.07
				c-1.22,0.55-2.63,0.57-3.94,0.48c-0.62-0.04-1.27-0.11-1.86-0.32c-0.57-0.21-0.55-0.23-0.66-0.72c-0.25-1.13,0.36-2.88,0.61-3.97
				c0.34-1.47,0.76-2.94,1.36-4.32c0.95-2.21,2.37-4.46,4.41-5.81c4.83-3.2,11.08-0.64,13.66,4.2c1.42,2.66,1.79,5.96,1.26,8.91
				c-0.48,2.67-1.41,5.73-4.54,5.95c-2.07,0.15-4.19-0.04-6.22-0.45c-1.06-0.22-2.16-0.45-3.17-0.84c-0.22-0.08-0.51-0.15-0.69-0.31
				c0.32,0.3,0.02,0.18,0.05-0.19c0.17-2.42,0.03-6.08,2.51-7.37C265.89,355.23,263.37,350.91,260.52,352.4L260.52,352.4z"/>
		</g>
	</g>
	<g>
		<g>
			<path class="st2" d="M250.63,340.46c-6.74,2.25-14.47,2.22-18.96,8.57c-1.75,2.47-2.68,5.81-1.77,8.78
				c0.98,3.2,3.74,5.24,6.86,6.15c3.16,0.92,6.75,1.05,10.02,0.99c3.53-0.07,7.33-0.71,10.27-2.8c5.13-3.67,7.33-11.83,1.72-16.15
				c-2.58-1.99-5.98-2.4-9.15-2.33c-3.45,0.08-7.34,0.5-8.33,4.44c-0.86,3.42,1.18,6.65,4.31,7.97c3.14,1.33,6.93,0.98,10.06-0.24
				c1.75-0.68,3.33-1.59,4.8-2.77c1.34-1.07,2.85-2.5,3.39-4.17c0.66-2-0.36-3.99-2.15-4.97c-1.53-0.83-3.36-0.96-5.06-0.75
				c-7.31,0.91-11.97,8.17-13.06,14.97c-0.48,3.02-0.38,6.36,1.57,8.88c2.23,2.88,6.03,3.35,9.27,2c3.3-1.38,5.94-4.06,7.94-6.97
				c1.87-2.72,3.77-6.58,3.6-9.97c-0.42-8.32-12.41-7.09-17.33-4.05c-6.31,3.9-8.01,11.5-8.43,18.43c-0.18,2.89,0.19,6.12,2.16,8.38
				c2.33,2.68,6.27,2.82,9.09,0.85c3.12-2.18,4.81-5.74,5.72-9.34c0.87-3.45,1.87-8.82-1.97-10.83c-1.67-0.87-3.72-1.2-5.56-1.47
				c-2.08-0.3-4.16-0.45-6.26-0.34c-3.61,0.19-9.25,0.58-9.25,5.39c0,1.76,0.82,3.37,1.51,4.94c0.64,1.45,1.3,2.89,2.02,4.3
				c1.48,2.89,3.27,5.7,5.59,7.99c5.63,5.58,13.35,5.99,20.81,6.68c3.79,0.35,8.12,1.3,11.35-1.29c2.81-2.25,3.58-6.05,4.04-9.43
				c1.09-8.11-0.44-16.25-2.18-24.16c-0.74-3.39-1.4-7.15-4.32-9.4c-1.51-1.16-3.33-1.67-5.18-1.98c-2.06-0.35-4.13-0.63-6.2-0.87
				c-4.05-0.48-8.13-0.74-12.21-0.82c-3.22-0.06-3.22,4.94,0,5c3.26,0.06,6.52,0.24,9.77,0.56c2.95,0.29,6.01,0.55,8.9,1.27
				c2.43,0.61,3.17,2.32,3.74,4.6c0.75,3,1.36,6.05,1.92,9.09c1.08,5.9,1.73,12.13,0.48,18.06c-0.39,1.87-0.99,4.34-3.16,4.76
				c-1.22,0.24-2.55,0.03-3.78-0.09c-1.63-0.15-3.26-0.31-4.9-0.46c-5.17-0.48-10.83-0.79-14.89-4.43
				c-3.63-3.26-5.72-7.86-7.65-12.25c-0.19-0.43-0.38-0.85-0.51-1.3c-0.03-0.1-0.13-0.71-0.16-0.77c-0.05-0.09-0.5,0.38-0.16,0.22
				c-0.33,0.15,0.29-0.05,0.29-0.05c0.44-0.08,0.87-0.19,1.31-0.26c0.7-0.12,1.41-0.21,2.12-0.26c3.05-0.23,6.11,0.02,9.06,0.82
				c0.27,0.07,0.55,0.14,0.82,0.24c0.13,0.04,0.53,0.38,0.39,0.16c-0.03-0.05-0.01,0.71-0.02,0.93c-0.03,1.55-0.29,3.08-0.7,4.57
				c-0.62,2.25-1.58,4.77-3.61,6.11c-0.66,0.44-1.37,0.65-2.05,0.34c-0.46-0.21-0.85-0.85-1.04-1.46c-0.6-1.87-0.37-3.97-0.14-5.94
				c0.58-4.85,1.77-10.01,6.39-12.53c1.89-1.03,4.09-1.48,6.24-1.26c0.79,0.08,2.09,0.23,2.68,0.81c0.67,0.67,0.09,2.11-0.14,2.86
				c-0.67,2.24-1.81,4.41-3.32,6.2c-1.48,1.75-3.51,3.83-5.9,4.16c-4.28,0.58-2.97-5.89-2.13-8.38c0.8-2.4,2.03-4.77,3.98-6.43
				c0.76-0.65,1.67-1.19,2.62-1.5c0.52-0.17,1.06-0.31,1.61-0.36c0.49-0.04,1.14,0.18,1.59,0.1c-2.04,0.4,0.56,0.04,0.34,0.13
				c-0.13,0.06,0.1-0.97-0.34-0.8c-0.33,0.12-0.92,1.01-1.18,1.25c-0.89,0.83-1.91,1.49-3,2.03c-1.87,0.92-4.31,1.45-6.38,0.96
				c-0.75-0.18-1.67-0.53-2.06-1.14c-0.32-0.5-0.38-1.23-0.12-1.55c0.11-0.14,0.27-0.18,0.7-0.25c0.47-0.08,0.96-0.08,1.43-0.11
				c1.25-0.07,2.53-0.11,3.78,0.02c1.72,0.17,3.7,0.72,4.58,2.35c0.74,1.37,0.43,3.1-0.39,4.57c-2.43,4.36-8.1,4.47-12.49,4.25
				c-3.3-0.17-9.6-0.42-9.27-4.9c0.34-4.65,5.43-6.75,9.39-7.72c2.68-0.66,5.4-1.12,8.02-2
				C254.99,344.27,253.69,339.44,250.63,340.46L250.63,340.46z"/>
		</g>
	</g>
	<g>
		<path class="st3" d="M255.52,348.32c-0.14,4.47-0.28,8.94-0.42,13.41c2.02,1.63,4.95-0.34,6.49-2.43
			c2.49-3.38,4.13-7.39,4.73-11.55c-1.75,3.92-2.79,8.15-3.07,12.43c1.18-2.68,2.07-5.49,2.64-8.37c0.14,2.9,0.28,5.81,0.43,8.71
			c1.28-3.94,2.56-7.87,3.84-11.81c0.61,3.33,0.74,6.75,0.38,10.11c0.56-1.93,1.12-3.86,1.68-5.79c0.53,6.33,0.67,12.69,0.42,19.03
			c0.05-3.3,0.11-6.6,0.16-9.89c-1.64-1.27-3.95,0.35-5.19,2.01c-2.47,3.3-4.15,7.18-4.89,11.23c0.62-7.21,0.95-14.44,1.01-21.67
			c-2.22,5.73-3.93,11.67-5.11,17.7c1.54-1.19-0.29-3.96-2.22-3.68c-1.93,0.29-3.12,2.27-3.65,4.14c-0.21,0.76-0.39,1.59-0.97,2.12
			c-0.89,0.82-2.35,0.57-3.34-0.11c-3.76-2.57-3.02-9.47-7.26-11.14c-1.66-0.65-3.72-0.09-4.83,1.31c-1.92,2.43-0.58,6.15,1.65,8.29
			s5.19,3.41,7.43,5.54c1.95,1.87,3.3,4.35,5.46,5.97c3.06,2.3,7.17,2.5,11,2.46c4.02-0.04,8.24-0.29,11.67-2.39
			c6.51-4,7.64-12.82,8.1-20.45c0.13-2.1,0.25-4.21,0.38-6.31c0.12-2,0.23-4.06-0.4-5.96c-1.08-3.27-4.13-5.46-7.13-7.16
			c-6.91-3.92-14.57-6.53-22.44-7.66c-4.48-0.64-9.41-0.69-13.11,1.92c-4.44,3.14-5.73,9.11-6.14,14.54
			c-0.51,6.91-0.13,13.98,2.07,20.55c1.36,4.05,3.58,8.06,7.27,10.2c2.28,1.32,4.94,1.83,7.55,2.22c9.17,1.37,19.66,1.2,26.28-5.29
			c7.28-7.14,6.86-19.21,3.08-28.68c-0.81-2.02-1.76-4.02-3.17-5.68c-3.4-4.02-8.95-5.53-14.2-5.89c-3.06-0.21-6.24-0.09-9,1.24
			c-4.82,2.32-7.27,7.72-8.78,12.85c-1.47,4.98-2.41,10.12-2.81,15.29c-0.06,0.82-0.1,1.69,0.3,2.41c0.4,0.72,1.17,1.16,1.94,1.44
			c4.28,1.55,9.29-0.82,11.75-4.65c2.46-3.83,2.74-8.72,1.91-13.19c-0.47-2.52-1.3-5.07-3.05-6.95c-1.25-1.35-2.92-2.29-4.67-2.86
			c-3.57-1.16-7.81-0.75-10.59,1.76c-2.78,2.52-3.46,7.32-0.91,10.07c2.55,2.75,8.07,1.9,9.11-1.7c0.35-1.2-0.05-2.81-1.27-3.07
			c-1.49-0.31-2.41,1.54-2.78,3.01c-0.74,2.92-1.48,5.95-0.99,8.92s2.56,5.91,5.53,6.43c2.66,0.46,5.34-1.13,6.93-3.31
			s2.29-4.87,2.92-7.49c0.68,1.25,2.94,0.47,3.04-0.95s-1.37-2.57-2.79-2.6c-1.42-0.03-2.73,0.75-3.86,1.63
			c-3.19,2.46-5.63,5.87-6.95,9.68c-0.18,0.53-0.34,1.11-0.14,1.63c0.3,0.77,1.25,1.05,2.08,1.09c3.6,0.19,6.95-2.16,8.97-5.16
			c2.01-2.99,2.93-6.57,3.82-10.06c-1.89,1.1-3.65,2.6-4.52,4.6s-0.68,4.58,0.88,6.1c1.57,1.53,4.55,1.46,5.71-0.4
			c-1.74,0.28-3.68,0.69-4.62,2.18s0.47,4.07,2.08,3.36c-0.74,0.16-1.3,0.92-1.23,1.67c2.1,1.2,4.4,2.02,6.78,2.43
			c2.26-3.12-0.62-7.64-4.16-9.15c-3.65-1.55-8.07-1.25-11.37,0.95s-5.28,6.3-4.78,10.23c2.79,0.76,5.94,0.06,8.15-1.8
			c1.4-1.18,2.48-2.81,4.16-3.56c1.86-0.82,4.56-0.74,5.2-2.66c-3.48-0.11-6.9,2.31-7.94,5.64c2.7-2.59,5.01-5.59,6.84-8.85
			c-0.08,1.17,1.34,2.01,2.49,1.73c1.14-0.28,1.96-1.28,2.53-2.31c0.38-0.69,0.7-1.46,0.6-2.24c-0.19-1.47-1.93-2.37-3.38-2.08
			c-1.46,0.29-2.6,1.44-3.39,2.7c-1.56,2.49-1.96,5.96-0.14,8.27s6.17,2.27,7.31-0.44c0.18-0.42,0.27-0.91,0.08-1.32
			c-0.24-0.54-0.85-0.8-1.43-0.9c-2.54-0.43-5.22,1.64-5.44,4.21c-0.21,2.57,2.09,5.06,4.67,5.06s4.87-2.52,4.64-5.08
			c-0.1-1.1-0.66-2.22-1.65-2.7c-0.99-0.49-2.4-0.11-2.8,0.92c-1.05-0.98-2.89-0.94-3.9,0.08c0.99,0.58,2.45,0.02,2.8-1.08
			c-1.26-2.13-4.77-2.37-6.31-0.43c-1.54,1.94-0.5,5.31,1.87,6.04c1.03,0.32,2.15,0.19,3.17-0.16c2.94-1.03,5.03-4.11,4.91-7.22
			c-1.97-0.85-4.1-1.31-6.25-1.34c-1.19-0.02-2.79,0.59-2.55,1.75c0.13,0.62,0.76,0.99,1.35,1.21c2.4,0.87,5.23,0.41,7.23-1.18
			c1.17-0.93,1.95-2.96,0.69-3.77c-0.6-0.38-1.41-0.26-2.01,0.11c-1.79,1.08-1.67,4.2,0.19,5.14c1.86,0.94,4.44-0.81,4.26-2.89
			c-2.45,0.5-4.59,2.34-5.45,4.7c1.09-1.39,1.73-3.12,1.82-4.88c-0.91,0.37-1.72,0.99-2.32,1.77c0.53-0.62,0.91-1.37,1.08-2.16
			c-1.45,1.54,0.33,4.36,2.45,4.36s3.81-1.84,4.6-3.8c0.74-1.83,0.04-4.8-1.9-4.42"/>
		<g>
			<path class="st2" d="M253.02,348.32c-0.12,3.73-0.23,7.45-0.35,11.18c-0.03,0.92-0.23,2.01,0.02,2.9c0.3,1.08,1.33,1.74,2.32,2.1
				c1.48,0.55,3.04,0.33,4.46-0.29c2.8-1.24,4.66-3.86,6.09-6.47c1.59-2.89,2.68-6.05,3.18-9.31c0.19-1.23-0.21-2.45-1.45-2.95
				c-1.04-0.42-2.62-0.13-3.12,1.02c-1.92,4.38-3.07,8.91-3.41,13.69c-0.17,2.38,3.67,3.54,4.66,1.26c1.26-2.9,2.26-5.86,2.89-8.96
				c-1.64-0.22-3.27-0.44-4.91-0.66c0.14,2.9,0.28,5.81,0.43,8.71c0.14,2.82,4.03,3.38,4.91,0.66c1.28-3.94,2.56-7.87,3.84-11.81
				c-1.61,0-3.21,0-4.82,0c0.55,3.12,0.61,6.3,0.29,9.45c-0.29,2.87,4.15,3.29,4.91,0.66c0.56-1.93,1.12-3.86,1.68-5.79
				c-1.64-0.22-3.27-0.44-4.91-0.66c0.52,6.33,0.66,12.68,0.42,19.03c1.67,0,3.33,0,5,0c0.05-3.2,0.26-6.45,0.16-9.65
				c-0.12-3.71-4.76-3.68-7.12-2.15c-2.25,1.47-3.77,3.92-4.99,6.26c-1.35,2.59-2.33,5.36-2.87,8.23c1.64,0.22,3.27,0.44,4.91,0.66
				c0.61-7.21,0.95-14.44,1.01-21.67c0.01-1.23-0.96-2.31-2.17-2.46c-1.31-0.16-2.28,0.6-2.74,1.79c-2.21,5.75-3.92,11.66-5.11,17.7
				c-0.48,2.44,2.27,4.17,4.18,2.43c1.67-1.52,1.61-4.01,0.34-5.75c-1.39-1.91-3.71-2.69-5.94-1.81c-2.15,0.85-3.48,2.82-4.23,4.93
				c-0.14,0.4-0.36,0.9-0.4,1.32c-0.06,0.8-0.28,0.06,0.13,0.16c-0.43-0.1-0.72-0.38-1.1-0.82c-0.72-0.85-1.22-2.34-1.69-3.62
				c-0.56-1.55-1.12-3.17-2.11-4.51c-2.78-3.79-8.49-4.22-11.3-0.14c-2.64,3.84-0.43,9.02,2.77,11.75c1.8,1.54,3.9,2.65,5.77,4.09
				c1.78,1.36,3.01,3.23,4.46,4.91c3.22,3.71,7.63,4.96,12.39,5.13c4.71,0.17,9.72,0,14.06-2.03c7.86-3.68,9.78-13.02,10.44-20.83
				c0.2-2.43,0.32-4.88,0.47-7.32c0.16-2.61,0.43-5.31-0.33-7.86c-1.38-4.58-5.53-7.37-9.53-9.53c-4.4-2.38-9.1-4.27-13.93-5.6
				c-4.61-1.27-9.63-2.33-14.44-2.08c-4.77,0.25-9.06,2.07-11.94,5.97c-2.51,3.41-3.39,7.74-3.83,11.86
				c-0.53,5.08-0.44,10.22,0.29,15.27c0.68,4.71,2.01,9.62,4.64,13.65c2.71,4.16,6.64,6.6,11.48,7.55
				c4.31,0.84,8.81,1.29,13.21,1.11c8.47-0.36,16.99-3.59,21.23-11.38c3.99-7.33,3.53-16.47,0.98-24.19
				c-1.5-4.54-3.61-8.8-7.58-11.65c-3.54-2.53-7.99-3.54-12.25-3.92c-4.91-0.44-9.85,0.15-13.78,3.35
				c-3.32,2.71-5.26,6.79-6.6,10.76c-1.63,4.81-2.6,9.86-3.18,14.89c-0.3,2.57-0.83,5.51,1.18,7.55c1.54,1.56,4.11,2.14,6.23,2.1
				c4.44-0.08,8.58-2.69,10.96-6.37c2.64-4.08,3.03-9.19,2.36-13.89c-0.67-4.74-2.64-9.34-7.06-11.69
				c-4.08-2.16-9.14-2.49-13.3-0.34c-3.88,2-6.06,6.38-5.43,10.67c0.59,4.02,3.88,6.95,7.96,6.95c3.8,0.01,7.82-2.73,7.72-6.85
				c-0.05-2.3-1.69-4.6-4.17-4.58c-2.49,0.02-3.99,2.14-4.72,4.27c-1.54,4.48-2.31,10.13,0.13,14.43c2.42,4.28,7.34,5.93,11.77,3.68
				c4.41-2.24,6.06-7.15,7.13-11.63c-1.52,0.2-3.05,0.4-4.57,0.6c3.01,4.42,9.85-0.1,7.06-4.68c-1.34-2.2-4.03-3.02-6.45-2.39
				c-2.17,0.56-4.08,2.17-5.64,3.71c-1.67,1.64-3.13,3.58-4.23,5.65c-1.09,2.04-2.65,4.97-1.35,7.23c1.27,2.21,4.05,2.4,6.3,2.05
				c2.22-0.35,4.21-1.43,5.93-2.83c4.26-3.47,5.83-8.96,7.12-14.07c0.53-2.08-1.76-3.96-3.67-2.82c-4.13,2.46-7.73,7.11-5.75,12.13
				c1.85,4.7,8.24,5.89,11.23,1.59c1.38-1.98-0.89-3.99-2.82-3.67c-2.96,0.49-6.48,1.89-6.73,5.36c-0.21,2.92,2.42,6.06,5.52,5
				c3.02-1.04,1.74-5.85-1.33-4.82c-1.86,0.62-3.02,2.1-3.06,4.08c-0.02,0.86,0.49,1.74,1.24,2.16c2.3,1.28,4.78,2.21,7.38,2.68
				c1.17,0.21,2.16-0.16,2.82-1.15c2.11-3.15,0.98-7.05-1.32-9.75c-2.41-2.83-6.18-4.14-9.83-4.14c-7.78,0-14.68,6.66-13.82,14.65
				c0.12,1.08,0.69,2.13,1.84,2.41c4.64,1.14,8.8-0.53,12.04-3.86c0.56-0.58,1.13-1.23,1.87-1.59c0.67-0.32,1.46-0.45,2.18-0.65
				c2.12-0.59,3.65-1.59,4.5-3.67c0.63-1.55-0.95-3.16-2.41-3.16c-4.72-0.03-8.84,3.05-10.35,7.47c-0.84,2.44,2.47,4.09,4.18,2.43
				c2.84-2.76,5.28-5.92,7.23-9.36c-1.55-0.42-3.11-0.84-4.66-1.26c0.06,1.99,1.37,3.6,3.3,4.12c1.91,0.52,3.9-0.31,5.18-1.75
				c1.24-1.38,2.25-3.28,2.14-5.18c-0.12-2.02-1.61-3.68-3.49-4.32c-3.94-1.33-7.33,1.89-8.75,5.28c-1.36,3.25-1.27,7.53,1.44,10.1
				c2.26,2.14,6.1,2.68,8.76,0.96c1.48-0.96,2.62-2.61,2.61-4.42c-0.01-2.41-2.15-3.8-4.35-3.93c-3.55-0.21-7.01,2.57-7.52,6.09
				c-0.55,3.78,2.26,7.56,6.05,8.12c4.18,0.61,8.37-3,8.17-7.31c-0.11-2.26-1.36-4.63-3.64-5.35c-2.05-0.65-4.49,0.14-5.48,2.13
				c1.31-0.17,2.62-0.34,3.93-0.51c-2.27-1.85-5.2-1.89-7.43,0.08c-1.13,1-0.91,3.27,0.51,3.93c2.14,1,4.88,0.55,6.1-1.69
				c1.34-2.47-0.95-4.62-3.14-5.41c-3.89-1.41-8.34,1.21-8.43,5.46c-0.1,4.63,4.17,7.62,8.53,6.39c4.26-1.2,7.18-5.39,7.13-9.75
				c-0.01-1.22-0.79-1.98-1.84-2.41c-3.24-1.34-10.75-3.15-11.89,1.88c-0.57,2.53,1.67,4.25,3.85,4.78
				c2.17,0.53,4.44,0.32,6.49-0.55c1.93-0.82,3.72-2.28,4.3-4.38c0.61-2.2-0.38-4.68-2.75-5.25c-4.67-1.12-7.28,4.57-5.16,8.17
				c2.75,4.68,10.04,1.87,9.91-3.22c-0.04-1.67-1.56-2.78-3.16-2.41c-3.41,0.79-5.94,3.24-7.19,6.44c-0.45,1.14,0.4,2.53,1.45,2.95
				c1.24,0.5,2.36,0.01,3.12-1.02c1.35-1.81,1.99-3.91,2.16-6.14c0.15-2.08-2.19-2.87-3.76-2.16c-1.09,0.49-2.06,1.24-2.83,2.16
				c1.18,1.18,2.36,2.36,3.54,3.54c0.8-1.01,1.39-2.01,1.72-3.27c0.59-2.25-2.52-4.45-4.18-2.43c-1.81,2.21-1.53,5.25,0.62,7.17
				c2.24,2,5.34,1.77,7.63-0.02c2.01-1.57,3.49-4.17,3.33-6.77c-0.15-2.47-1.82-5.32-4.67-4.97c-1.34,0.17-2.5,1.03-2.5,2.5
				c0,1.22,1.15,2.67,2.5,2.5c0.42-0.05,0.08-0.13-0.2-0.23c-0.34-0.12-0.23-0.06-0.21-0.1c-0.06-0.17-0.06-0.17,0,0
				c0.04,0.13,0.08,0.26,0.1,0.4c-0.04-0.25,0,0.13,0,0.19c0.02,0.6-0.36,1.46-0.98,2.15c-0.29,0.32-0.63,0.62-1.03,0.75
				c-0.35,0.12-0.36,0.07-0.51,0c0.12,0.06,0.19,0.21-0.13-0.14c0.16,0.17-0.16-0.24-0.2-0.3c-0.24-0.37,0.1,0.1,0,0.09
				c0-0.09,0-0.17,0-0.26c0.04,0.26-0.03,0.45-0.21,0.57c-1.39-0.81-2.79-1.62-4.18-2.43c-0.1,0.37-0.19,0.75-0.44,1.06
				c-0.84,1.06-1.03,2.5,0,3.54c0.89,0.89,2.67,1.05,3.54,0c0.54-0.66,1.03-1.03,1.81-1.38c-1.25-0.72-2.51-1.44-3.76-2.16
				c-0.1,1.37-0.66,2.53-1.48,3.62c1.52,0.64,3.05,1.28,4.57,1.93c0.62-1.58,2.1-2.58,3.7-2.95c-1.05-0.8-2.11-1.61-3.16-2.41
				c0.01,0.35-0.12,0.54-0.65,0.66c0.27-0.06-0.01,0.11-0.05-0.06c0.04,0.16-0.01-0.17-0.05-0.34c0.03,0.13,0.05-0.29,0.05-0.29
				c0.04-0.2,0.06-0.1,0.07-0.09c-0.28-0.1-0.57-0.2-0.85-0.29c-0.09-0.14-0.18-0.28-0.26-0.42c-0.25-0.26,0.32-0.76-0.07-0.22
				c-0.12,0.16-0.19,0.36-0.38,0.53c-0.65,0.61-1.75,0.94-2.61,1.03c-0.41,0.04-0.88,0.03-1.28-0.03c-1-0.15-1.17-0.81-0.96,0.54
				c-0.08-0.5,0.44,1.49-0.19,1.21c-0.06-0.03,0.44-0.04,0.27-0.09c0.52,0.15,1.25,0.02,1.8,0.08c1.41,0.18,2.78,0.62,4.08,1.16
				c-0.61-0.8-1.22-1.61-1.84-2.41c0.02,1.64-0.69,3.21-2.02,4.21c-0.96,0.73-2.58,1.22-3.25,0.48c-1.45-1.61,1.03-3.09,1.97-1.66
				c-0.08-0.64-0.17-1.28-0.25-1.93c0.2-0.46,0.39-0.64,0.88-0.42c0.17,1.31,0.34,2.62,0.51,3.93c0.02-0.02,0.33-0.11,0.36-0.08
				c1.16,0.94,3.14,1.06,3.93-0.51c0.41-0.82-0.57,0.58-0.49,0.02c-0.01,0.04,0.26,0.48,0.28,0.62c0.04,0.21,0.02,0.4-0.02,0.6
				c-0.2,1-1.24,1.98-2.29,1.86c-2.21-0.24-2.64-3.15-0.68-4.09c0.12-0.06,1.37-0.28,1.31-0.18c0,0-0.65-1.28-0.63-1.27
				c-0.03-0.01-0.08,0.22-0.13,0.23c0.08-0.01-0.11,0.08-0.15,0.11c-0.57,0.4-1.53,0.34-2.17,0.01c-2.08-1.06-1.29-4.67,0-6.33
				c0.43-0.55,0.99-1.02,1.61-1.12c0.02,0,0.29,0.19,0.25,0.04c0.09,0.35-0.67,1.28-0.94,1.52c-0.17,0.15-0.29,0.26-0.3,0.19
				c0.01,0.04,0.59,0.31,0.6,0.72c-0.08-2.42-3.4-3.48-4.66-1.26c-1.76,3.1-3.9,5.87-6.45,8.35c1.39,0.81,2.79,1.62,4.18,2.43
				c0.8-2.33,3.12-3.82,5.53-3.8c-0.8-1.05-1.61-2.11-2.41-3.16c0.16-0.38-0.25-0.05-0.55,0.04c-0.67,0.21-1.35,0.35-2.02,0.55
				c-1.63,0.5-2.96,1.39-4.17,2.58c-1.08,1.06-2.03,2.22-3.46,2.81c-1.35,0.55-2.82,0.64-4.23,0.29c0.61,0.8,1.22,1.61,1.84,2.41
				c-0.53-4.9,3.04-9.31,8.03-9.63c2.24-0.14,4.7,0.31,6.38,1.9c0.66,0.62,1.23,1.37,1.53,2.23c0.3,0.87,0.26,1.39-0.28,2.21
				c0.94-0.38,1.88-0.77,2.82-1.15c-2.2-0.4-4.23-1.09-6.18-2.18c0.41,0.72,0.83,1.44,1.24,2.16c-0.06,0.35-0.26,0.6-0.61,0.74
				c-0.44-1.61-0.89-3.21-1.33-4.82c-0.7,0.24,0.8,0.32,0.84,0.31c0.11-0.01-0.08-0.1-0.06-0.09c-0.11-0.02,0.1-0.28,0-0.12
				c-0.03,0.05-0.07,0.22-0.01,0.18c0.95-0.6,1.96-0.81,3.09-1c-0.94-1.22-1.88-2.45-2.82-3.67c0.07-0.1-0.3,0.14-0.14,0.09
				c0.26-0.08-0.28,0.1-0.34,0.12c-0.19,0.04-0.59,0.03-0.87-0.07c-0.48-0.18-0.94-0.76-1.07-1.52c-0.41-2.5,1.88-4.37,3.78-5.5
				c-1.22-0.94-2.45-1.88-3.67-2.82c-0.86,3.38-1.68,7.04-3.84,9.86c-0.92,1.21-2.14,2.28-3.53,2.92c-0.58,0.27-1.23,0.48-1.86,0.57
				c-0.37,0.05-0.78-0.04-1.14,0.03c-0.51,0.1-0.13-0.37,0.02,0.13c0.39,1.27,0.38,0.5,0.58-0.06c0.11-0.3,0.23-0.6,0.36-0.89
				c0.38-0.86,0.84-1.68,1.35-2.47c0.9-1.41,1.99-2.67,3.23-3.8c0.53-0.48,1.08-0.94,1.69-1.32c0.57-0.36,1.09-0.38,1.63-0.61
				c0.77-0.32-0.06,0.89,0.35-0.32c0.27-0.78,1.1-0.57,1.57,0.11c-1.14-1.68-4.04-1.62-4.57,0.6c-0.75,3.15-1.67,7.39-5.06,8.75
				c-2.85,1.14-4.93-1.47-5.43-4.03c-0.38-1.92,0-3.96,0.42-5.84c0.2-0.89,0.36-1.84,0.69-2.69c0.05-0.14,0.37-0.63,0.37-0.72
				c-0.04-0.58,0.12-0.06,0.08-0.08c-0.01-0.01-0.48,0.2-0.54,0.2c-0.25,0-0.63-0.32-0.82-0.41c-0.2-0.09,0.29-0.09,0,0.07
				c-0.01,0.01,0.01,0.08,0,0.14c-0.06,0.48-0.28,0.71-0.69,1.04c-0.5,0.4-1.5,0.65-2.46,0.58c-0.11-0.01-0.2-0.01-0.57-0.12
				c-0.09-0.03-0.63-0.25-0.43-0.15c-0.47-0.23-0.67-0.37-1.03-0.87c-0.7-0.98-0.78-2.28-0.53-3.4c0.64-2.82,3.22-4.37,6-4.51
				c3.2-0.16,6.63,1.14,8.28,4.02c1.72,3,2.14,7.15,1.71,10.54c-0.4,3.13-1.82,6.21-4.56,7.92c-1.25,0.78-2.65,1.28-4.13,1.28
				c-0.66,0-1.31-0.1-1.93-0.34c-0.68-0.26-0.62-0.24-0.61-0.87c0.08-4.18,0.98-8.48,2-12.52c0.86-3.38,1.87-6.79,3.74-9.77
				c1.75-2.78,4.26-4.65,7.56-5.15c3.42-0.51,7.21-0.05,10.51,0.93c3.19,0.95,5.99,2.7,7.72,5.6c1.74,2.91,2.8,6.3,3.49,9.61
				c1.24,6.01,0.92,12.88-2.82,17.99c-3.82,5.23-10.5,6.89-16.66,7.02c-3.44,0.07-6.9-0.24-10.28-0.84
				c-3.63-0.64-6.79-1.91-8.93-5.05c-4.39-6.44-5.05-15.17-4.74-22.72c0.24-5.84,1.01-14.11,7.61-16.22
				c3.41-1.09,7.15-0.66,10.62-0.05c4.06,0.71,8.05,1.82,11.9,3.3c3.6,1.39,7.24,3.1,10.4,5.33c1.25,0.88,2.43,1.97,3.16,3.33
				c0.89,1.65,0.79,3.57,0.7,5.39c-0.2,3.87-0.36,7.76-0.81,11.61c-0.34,2.95-0.93,6.06-2.26,8.75c-1.32,2.68-3.35,4.91-6.23,5.91
				c-3.42,1.18-7.22,1.19-10.8,1.06c-1.76-0.06-3.53-0.26-5.19-0.88c-1.56-0.59-2.73-1.68-3.8-2.93c-1.19-1.4-2.24-2.91-3.61-4.15
				c-1.52-1.37-3.28-2.43-4.97-3.58c-1.76-1.19-5.07-3.93-3.78-6.38c0.5-0.96,1.7-1.11,2.51-0.61c0.18,0.11,0.57,0.52,0.66,0.65
				c0.31,0.46,0.66,1.15,0.83,1.53c1.04,2.44,1.71,5.41,3.7,7.49c2.82,2.93,7.59,2.72,9.04-1.42c0.45-1.28,0.63-2.35,1.69-3.25
				c0.03-0.02,0.26-0.18,0.04-0.07c-0.1,0.05-0.28-0.2-0.04,0.01c0.33,0.3,0.02,0,0.04,0.03c-0.03-0.07-0.11-0.18,0.04,0.03
				c0.22,0.32,0,0.01,0.03,0c0.02,0.08,0.04,0.16,0.06,0.25c0-0.2,0-0.4,0-0.6c0.04-0.13,0.61-0.75,0.11-0.28
				c1.39,0.81,2.79,1.62,4.18,2.43c1.19-6.04,2.9-11.96,5.11-17.7c-1.64-0.22-3.27-0.44-4.91-0.66c-0.06,7.23-0.4,14.46-1.01,21.67
				c-0.24,2.79,4.39,3.44,4.91,0.66c0.52-2.74,1.4-5.35,2.77-7.78c0.59-1.04,1.22-2.15,2.05-3.03c0.34-0.37,0.73-0.75,1.21-0.95
				c0.3-0.13-0.05-0.27,0.37,0.01c-0.41-0.72-0.83-1.44-1.24-2.16c-0.05,3.3-0.11,6.6-0.16,9.89c-0.05,3.23,4.88,3.21,5,0
				c0.23-6.35,0.09-12.7-0.42-19.03c-0.22-2.72-4.09-3.5-4.91-0.66c-0.56,1.93-1.12,3.86-1.68,5.79c1.64,0.22,3.27,0.44,4.91,0.66
				c0.36-3.62,0.16-7.2-0.47-10.78c-0.46-2.59-4.12-2.15-4.82,0c-1.28,3.94-2.56,7.87-3.84,11.81c1.64,0.22,3.27,0.44,4.91,0.66
				c-0.14-2.9-0.28-5.81-0.43-8.71c-0.13-2.68-4.32-3.56-4.91-0.66c-0.54,2.66-1.31,5.28-2.39,7.77c1.55,0.42,3.11,0.84,4.66,1.26
				c0.27-3.83,1.19-7.65,2.73-11.17c-1.52-0.64-3.05-1.28-4.57-1.93c-0.47,3.06-1.42,5.99-2.99,8.67c-0.68,1.18-1.42,2.39-2.49,3.26
				c-0.36,0.29-0.79,0.6-1.23,0.73c-0.5,0.15-0.47,0.09-0.85-0.18c0.41,0.72,0.83,1.44,1.24,2.16c0.14-4.47,0.28-8.94,0.42-13.41
				C258.12,345.1,253.12,345.1,253.02,348.32L253.02,348.32z"/>
		</g>
	</g>
	<g>
		<g>
			<path class="st2" d="M257.33,356.83c3.22,0,3.22-5,0-5C254.12,351.83,254.11,356.83,257.33,356.83L257.33,356.83z"/>
		</g>
	</g>
	<g>
		<g>
			<path class="st2" d="M244.68,339.39c0.94,0.12,1.88,0.23,2.81,0.35c-0.8-1.05-1.61-2.11-2.41-3.16
				c-0.32,1.24-0.83,3.54-1.98,3.89c-0.31,0.08-0.37,0.09-0.19,0.03c-0.32-0.02-0.38-0.01-0.19,0.01c-0.16-0.03-0.45-0.19-0.32-0.09
				c0.46,0.32-0.17,0.52,0.61-0.1c1.54-1.21,3.83-1.81,5.66-2.44c2.32-0.79,4.68-1.44,7.08-1.94c2.33-0.48,4.69-0.81,7.06-0.98
				c1.92-0.13,4.43-0.55,6.23,0.32c1.39,0.68,2.16,2.27,2.86,3.56c0.93,1.71,1.82,3.37,3.07,4.86c0.85,1.02,2.67,0.91,3.54,0
				c1.32-1.4,1.73-3.34,1.09-5.16c-0.72-2.04-2.46-3.25-4.4-4c-3.79-1.47-8.01-2.1-12.03-2.53c0.22,1.64,0.44,3.27,0.66,4.91
				c3.3-0.74,6.82,0.44,9.39,2.56c2.99,2.48,4.71,6.09,5.63,9.8c0.97,3.96,1.26,8.34,0,12.26c-1.21,3.74-4.1,6.66-6.94,9.25
				c-2.94,2.67-5.96,5.34-9.29,7.53c-3.07,2.02-6.52,3.69-10.26,3.74c-0.8,0.01-1.72,0.02-2.48-0.28c-0.73-0.29-1.02-1.01-1.37-1.67
				c-0.93-1.77-2.03-3.21-3.57-4.49c-1.41-1.17-2.75-2.24-3.61-3.89c-0.86-1.65-1.21-3.58-1.49-5.41
				c-0.67-4.32-1.12-8.76-1.06-13.13c0.07-4.4,0.87-8.73,3.26-12.49c-1.52-0.64-3.05-1.28-4.57-1.93
				c-1.36,7.35-2.72,14.69-4.08,22.04c-0.19,1.01,0.1,2.34,1.15,2.82c5.01,2.33,8.03-4.24,9.5-7.93c1.66-4.15,2.23-8.79,1.66-13.22
				c-0.14-1.11-0.68-2.09-1.84-2.41c-0.97-0.27-2.39,0.15-2.82,1.15c-1.69,3.93-6.06,18.59,2.83,16.87
				c2.86-0.55,5.43-3.14,7.29-5.25c2.13-2.43,3.73-5.13,4.94-8.12c-1.61,0-3.21,0-4.82,0c0.86,2.42,1.91,4.77,3.18,7
				c0.85,1.48,2.73,1.53,3.93,0.51c3.05-2.61,5.63-5.74,7.66-9.2c-1.52-0.2-3.05-0.4-4.57-0.6c0.67,2.98,1.36,5.96,2.06,8.94
				c0.46,1.96,2.82,2.26,4.18,1.1c2.1-1.79,3.56-4.13,4.41-6.74c-1.61,0-3.21,0-4.82,0c1.16,6.17,2.32,12.33,3.48,18.5
				c0.39,2.09,3.62,2.45,4.57,0.6c2.03-3.98,2.95-8.42,2.46-12.87c-0.12-1.11-0.69-2.1-1.84-2.41c-1.04-0.29-2.3,0.18-2.82,1.15
				c-0.96,1.77-1.99,3.5-3.08,5.19c-0.51,0.78-1.03,1.55-1.56,2.31c-0.27,0.39-0.61,0.77-0.85,1.17c-0.02,0.03-0.31,0.29-0.3,0.3
				c0.03,0.04,1.07-0.28,1.03,0c0.01-0.05-0.91-1.1-1.01-1.27c-0.33-0.57-0.58-1.15-0.8-1.78c-0.47-1.36-0.82-2.76-1.31-4.11
				c-1.16-3.19-3.05-5.77-6.39-6.87c-3.14-1.03-6.94-0.74-10.15-0.18c-3.45,0.6-6.88,2.28-8.52,5.52c-1.48,2.92,2.44,5.1,4.32,2.52
				c1.57-2.15,3.14-4.3,4.71-6.45c-1.55-0.42-3.11-0.84-4.66-1.26c1.03,8.83,1.32,17.73,0.83,26.6c-0.01,0.19-0.17,1.16-0.06,1.25
				c0.18-0.14,0.35-0.28,0.51-0.44c0.02-0.03,0.05-0.04,0.08-0.04c-0.26-0.37-2.47,0.44-2.76,0.6c-1.93,1.04-2.42,3.54-1.44,5.4
				c2.08,3.96,7.82,2.63,11.01,1.08c1.21-0.59,1.54-2.32,0.9-3.42c-0.73-1.24-2.2-1.49-3.42-0.9c-1.28,0.62-2.57,0.81-3.98,0.8
				c-0.62,0-0.12-0.31-0.13,0.06c0.03,0.12,0.07,0.24,0.1,0.36c-0.13,0.84-0.42,1.2-0.88,1.07c0.25,0.12,1.54-0.13,1.87-0.21
				c1.96-0.5,2.89-2.13,3.09-4.04c0.19-1.81,0.21-3.66,0.27-5.48c0.23-7.58-0.12-15.16-1-22.69c-0.29-2.51-3.14-3.34-4.66-1.26
				c-1.57,2.15-3.14,4.3-4.71,6.45c1.44,0.84,2.88,1.68,4.32,2.52c1.14-2.25,3.66-3,6.06-3.31c2.53-0.33,6.52-0.79,8.48,1.21
				c1.71,1.74,2.01,4.73,2.86,7c1.12,2.97,3.73,7.42,7.58,5.72c1.99-0.88,3.2-3.2,4.37-4.94c1.29-1.93,2.48-3.92,3.59-5.96
				c-1.55-0.42-3.11-0.84-4.66-1.26c0.4,3.58-0.13,7.12-1.78,10.34c1.52,0.2,3.05,0.4,4.57,0.6c-1.16-6.17-2.32-12.33-3.48-18.5
				c-0.48-2.57-4.12-2.17-4.82,0c-0.59,1.83-1.66,3.29-3.12,4.53c1.39,0.37,2.79,0.74,4.18,1.1c-0.7-2.98-1.38-5.96-2.06-8.94
				c-0.48-2.14-3.52-2.39-4.57-0.6c-1.83,3.12-4.14,5.83-6.88,8.19c1.31,0.17,2.62,0.34,3.93,0.51c-1.06-1.86-1.96-3.78-2.68-5.8
				c-0.86-2.45-3.9-2.28-4.82,0c-1.46,3.61-4.15,7.29-7.49,9.39c-0.03,0.02-0.93,0.43-0.92,0.42c0.01-0.06,0.71,0.55,0.64,0.57
				c0.04-0.01,0.06-2.79,0.09-3.06c0.21-2.37,0.84-4.79,1.78-6.97c-1.55-0.42-3.11-0.84-4.66-1.26c0.41,3.21,0.23,6.4-0.66,9.51
				c-0.43,1.48-0.99,2.9-1.71,4.25c-0.39,0.74-0.82,1.47-1.3,2.15c-0.09,0.13-0.38,0.39-0.43,0.54c-0.19,0.52-0.72-0.17,0.47,0.38
				c0.38,0.94,0.77,1.88,1.15,2.82c1.36-7.35,2.72-14.69,4.08-22.04c0.51-2.73-2.99-4.42-4.57-1.93
				c-5.14,8.11-4.19,18.17-3.02,27.24c0.59,4.61,1.55,9.29,5.2,12.51c1.58,1.4,3.12,2.47,4.11,4.38c1.17,2.25,2.71,3.97,5.29,4.5
				c9.55,1.97,18.14-5.43,24.74-11.23c3.41-2.99,6.85-6.28,8.75-10.48c2.18-4.82,2.19-10.17,1.26-15.3
				c-0.92-5.08-3.18-10.28-7.15-13.7c-3.98-3.43-9.2-5.14-14.4-3.97c-1.2,0.27-1.97,1.58-1.79,2.74c0.2,1.31,1.18,2.03,2.46,2.17
				c2.63,0.28,5.24,0.78,7.8,1.46c1.06,0.28,2.25,0.51,3.21,1.06c0.15,0.09,0.8,0.63,0.79,0.64c1.18,0,2.36,0,3.54,0
				c-2.46-2.93-3.19-6.92-6.67-9.04c-2.02-1.23-4.44-1.35-6.74-1.28c-2.6,0.08-5.18,0.35-7.75,0.74c-4.99,0.77-9.83,2.21-14.47,4.19
				c-1.99,0.85-4.02,1.97-4.92,4.05c-0.93,2.14-0.18,4.6,1.81,5.83c1.85,1.14,4.47,1.1,6.27-0.1c2.26-1.51,3.19-4.14,3.84-6.65
				c0.45-1.73-0.81-2.97-2.41-3.16c-0.94-0.12-1.88-0.23-2.81-0.35c-1.34-0.17-2.5,1.27-2.5,2.5
				C242.18,338.38,243.33,339.23,244.68,339.39L244.68,339.39z"/>
		</g>
	</g>
</g>
<g id="Layer_1">
	<g>
		<g>
			<path d="M210.17,451c0,22.66,0,45.31,0,67.97c0,21.03,0,42.07,0,63.1c0,12.74,0,25.48,0,38.21c0,3.22,5,3.22,5,0
				c0-21.54,0-43.08,0-64.62c0-22.15,0-44.3,0-66.45c0-12.74,0-25.48,0-38.21C215.17,447.78,210.17,447.78,210.17,451L210.17,451z"
				/>
		</g>
	</g>
	<g>
		<g>
			<path d="M213.93,448.84c-2.68-1.36-5.19-3.04-7.66-4.75c-1.62-1.12-3.21-2.27-4.79-3.45c-0.85-0.63-1.71-1.27-2.55-1.92
				c-0.95-0.72-1.77-1.36-2.47-1.9c-8.61-6.68-16.99-13.65-25.35-20.64c-9.38-7.83-18.72-15.71-28.13-23.51
				c-8.84-7.32-17.73-14.58-26.87-21.52c-6.5-4.93-13.14-9.98-20.4-13.75c-0.61-0.32-1.23-0.62-1.85-0.91
				c-0.2,1.52-0.4,3.05-0.6,4.57c1.07-0.22,2.14-0.4,3.21-0.58c0.54-0.09,1.09-0.17,1.64-0.25c0.26-0.04,0.52-0.07,0.78-0.11
				c0.15-0.02,0.72-0.1-0.03,0c0.22-0.03,0.43-0.06,0.65-0.08c2.77-0.36,5.56-0.64,8.35-0.89c7.09-0.63,14.2-1.03,21.3-1.36
				c18.42-0.85,36.86-1.21,55.3-1.51c20.83-0.34,41.65-0.56,62.48-0.9c19.24-0.31,38.48-0.67,57.7-1.48
				c14.15-0.6,28.41-1.22,42.42-3.35c1.17-0.18,2.34-0.37,3.51-0.59c-0.81-0.21-1.62-0.43-2.43-0.64c-0.61-0.55-0.74-1.57-0.6-2.12
				c-0.07,0.25,0.43-0.7,0.04-0.14c-0.13,0.19-0.28,0.39-0.4,0.59c-0.25,0.41,0.47-0.56,0.11-0.14c-0.12,0.14-0.23,0.29-0.35,0.43
				c-1.27,1.51-2.67,2.91-4.06,4.29c-4.82,4.78-9.86,9.34-14.9,13.88c-6.9,6.22-13.88,12.35-20.89,18.45
				c-7.82,6.82-15.68,13.59-23.56,20.34c-7.53,6.45-15.08,12.88-22.65,19.3c-6.07,5.15-12.14,10.28-18.22,15.4
				c-3.42,2.88-6.85,5.76-10.28,8.64c-0.31,0.26-0.64,0.51-0.94,0.79c-1.31,1.23-0.93,3.26-0.93,4.91c0,10.36,0,20.72,0,31.08
				c0,20.73,0,41.46,0,62.18c0,19.27,0,38.54,0,57.81c0,5.08,0,10.15,0,15.23c0,3.22,5,3.22,5,0c0-21.56,0-43.11,0-64.67
				c0-22.08,0-44.15,0-66.23c0-12.79,0-25.59,0-38.38c-0.24,0.59-0.49,1.18-0.73,1.77c4.43-3.71,8.85-7.43,13.27-11.16
				c10.42-8.79,20.82-17.6,31.19-26.45c12.08-10.31,24.12-20.66,36.07-31.12c9.51-8.33,19.04-16.67,28.18-25.41
				c2.45-2.34,4.97-4.68,7.12-7.29c0.67-0.82,1.47-1.72,1.75-2.78c0.26-0.97,0.04-2.03-0.69-2.75c-1.29-1.27-3.54-0.43-5.14-0.18
				c-0.59,0.09-1.19,0.18-1.79,0.27c-0.28,0.04-0.56,0.08-0.84,0.12c-0.17,0.02-0.34,0.05-0.52,0.07c0.7-0.09,0.13-0.02-0.03,0
				c-1.42,0.18-2.83,0.35-4.25,0.51c-3.06,0.33-6.12,0.61-9.18,0.86c-7.4,0.59-14.82,1-22.24,1.33c-18.24,0.82-36.5,1.2-54.75,1.52
				c-20.02,0.34-40.05,0.56-60.07,0.87c-18.31,0.28-36.63,0.59-54.93,1.28c-13.3,0.5-26.69,1.02-39.89,2.81
				c-2.04,0.28-4.08,0.59-6.1,1c-2.02,0.41-2.53,3.68-0.6,4.57c6.94,3.18,13.23,7.93,19.32,12.46c8.75,6.51,17.31,13.48,25.85,20.51
				c9.44,7.78,18.79,15.67,28.17,23.51c8.55,7.15,17.11,14.3,25.87,21.2c6.16,4.85,12.4,9.88,19.24,13.78
				c0.53,0.3,1.07,0.6,1.62,0.87C214.27,454.61,216.8,450.3,213.93,448.84L213.93,448.84z"/>
		</g>
	</g>
	<g>
		<g>
			<path d="M212.86,618.71c-8.28,2.16-16.57,4.32-24.85,6.47c-6.55,1.71-13.12,3.46-19.15,6.61c-3.83,2-7.35,4.56-10.48,7.53
				c-1.6,1.52-0.35,4.25,1.77,4.27c29.82,0.3,59.63,0.63,89.45,0.97c8.33,0.1,16.66,0.19,24.98,0.29c2.63,0.03,3.2-3.31,1.26-4.66
				c-11.6-8.05-24.22-14.57-37.58-19.18c-1.28-0.44-2.73,0.5-3.08,1.75c-0.38,1.37,0.47,2.63,1.75,3.08
				c12.95,4.47,25.14,10.87,36.39,18.67c0.42-1.55,0.84-3.11,1.26-4.66c-29.81-0.36-59.63-0.69-89.45-1.01
				c-8.33-0.09-16.66-0.17-24.99-0.26c0.59,1.42,1.18,2.85,1.77,4.27c6.37-6.04,14.22-9.28,22.57-11.57
				c9.87-2.71,19.81-5.18,29.71-7.76C217.3,622.72,215.98,617.9,212.86,618.71L212.86,618.71z"/>
		</g>
	</g>
	<g>
		<g>
			<path d="M234.67,623.5c3.22,0,3.22-5,0-5C231.45,618.5,231.44,623.5,234.67,623.5L234.67,623.5z"/>
		</g>
	</g>
	<g>
		<g>
			<path class="st4" d="M271.04,336.16c3.04-9.94,10.83-17.56,19.54-22.81c10.32-6.21,22.07-9.93,33.44-13.72
				c6.82-2.27,13.69-4.4,20.59-6.4c3.08-0.89,1.77-5.72-1.33-4.82c-12.6,3.65-25.12,7.67-37.39,12.32
				c-11.11,4.21-22.21,9.47-30.39,18.34c-4.19,4.54-7.47,9.85-9.29,15.77C265.27,337.92,270.09,339.24,271.04,336.16L271.04,336.16z
				"/>
		</g>
	</g>
</g>
</svg>
